{"title":"Trois.Souvenirs.de.Ma.Jeunesse.2015.BRRip.x264.HORiZON-ArtSubs","uid":12738667,"size":1664576838,"categoryP":"video","categoryS":"movies","magnet":"?xt=urn:btih:f18a60ef027876ff5c153efae152b2c283d74397&amp;dn=Trois.Souvenirs.de.Ma.Jeunesse.2015.BRRip.x264.HORiZON-ArtSubs&amp;tr=udp%3A%2F%2Ftracker.leechers-paradise.org%3A6969&amp;tr=udp%3A%2F%2Fzer0day.ch%3A1337&amp;tr=udp%3A%2F%2Fopen.demonii.com%3A1337&amp;tr=udp%3A%2F%2Ftracker.coppersurfer.tk%3A6969&amp;tr=udp%3A%2F%2Fexodus.desync.com%3A6969","seeders":21,"leechers":3,"uploader":"lletaif","files":1,"time":1447212992,"description":"General\r\nUnique ID : 219951450902171649616678046548481005264 (0xA5791BCA9D21896787B54698F6A3D6D0)\r\nComplete name :Trois.Souvenirs.de.Ma.Jeunesse.2015.BRRip.x264.HORiZON-ArtSubs.mkv\r\nFormat : Matroska\r\nFormat version : Version 2\r\nFile size : 1.55 GiB\r\nDuration : 2h 3mn\r\nOverall bit rate mode : Variable\r\nOverall bit rate : 1 796 Kbps\r\nMovie name : trois.souvenirs.de.ma.jeunesse.2015.french.720p.bluray.x264-lost\r\nEncoded date : UTC 2015-10-28 00:11:40\r\nWriting application : DVDFab 9.2.0.1\r\nWriting library : libebml v0.7.8 + libmatroska v0.8.1\r\n\r\nVideo\r\nID : 1\r\nFormat : AVC\r\nFormat/Info : Advanced Video Codec\r\nFormat profile :   \r\nFormat settings, CABAC : Yes\r\nFormat settings, ReFrames : 2 frames\r\nCodec ID : V_MPEG4/ISO/AVC\r\nDuration : 2h 3mn\r\nBit rate mode : Variable\r\nBit rate : 1 312 Kbps\r\nMaximum bit rate : 2 040 Kbps\r\nWidth : 1 280 pixels\r\nHeight : 536 pixels\r\nDisplay aspect ratio : 2.40:1\r\nFrame rate mode : Constant\r\nFrame rate : 23.976 fps\r\nColor space : YUV\r\nChroma subsampling : 4:2:0\r\nBit depth : 8 bits\r\nScan type : Progressive\r\nBits/(Pixel*Frame) : 0.080\r\nStream size : 1.13 GiB (73%)\r\nDefault : Yes\r\nForced : No\r\n\r\nAudio\r\nID : 2\r\nFormat : AC-3\r\nFormat/Info : Audio Coding 3\r\nMode extension : CM (complete main)\r\nFormat settings, Endianness : Big\r\nCodec ID : A_AC3\r\nDuration : 2h 3mn\r\nBit rate mode : Constant\r\nBit rate : 448 Kbps\r\nChannel(s) : 6 channels\r\nChannel positions : Front: L C R, Side: L R, LFE\r\nSampling rate : 48.0 KHz\r\nBit depth : 16 bits\r\nCompression mode : Lossy\r\nStream size : 396 MiB (25%)\r\nLanguage : French\r\nDefault : No\r\nForced : No\r\n\r\nMenu\r\n00:00:00.000 : en:00:00:00.000\r\n00:14:41.714 : en:00:14:41.714\r\n00:26:06.356 : en:00:26:06.356\r\n00:38:35.271 : en:00:38:35.271\r\n00:52:43.994 : en:00:52:43.994\r\n01:06:08.214 : en:01:06:08.214\r\n01:21:08.863 : en:01:21:08.864\r\n01:40:48.918 : en:01:40:48.918\r\n02:00:34.144 : en:02:00:34.144","torrent":{"xt":"urn:btih:f18a60ef027876ff5c153efae152b2c283d74397","amp;dn":"Trois.Souvenirs.de.Ma.Jeunesse.2015.BRRip.x264.HORiZON-ArtSubs","amp;tr":["udp%3A%2F%2Ftracker.leechers-paradise.org%3A6969","udp%3A%2F%2Fzer0day.ch%3A1337","udp%3A%2F%2Fopen.demonii.com%3A1337","udp%3A%2F%2Ftracker.coppersurfer.tk%3A6969","udp%3A%2F%2Fexodus.desync.com%3A6969"],"infoHash":"f18a60ef027876ff5c153efae152b2c283d74397","infoHashBuffer":{"type":"Buffer","data":[241,138,96,239,2,120,118,255,92,21,62,250,225,82,178,194,131,215,67,151]},"announce":[],"urlList":[]}}